<?xml version="1.0" encoding="utf-8"?><svg xml:space="preserve" viewBox="0 0 100 100" y="0" x="0" xmlns="http://www.w3.org/2000/svg" id="Layer_1" version="1.1" width="302px" height="302px" xmlns:xlink="http://www.w3.org/1999/xlink" style="width:100%;height:100%;background-size:initial;background-repeat-y:initial;background-repeat-x:initial;background-position-y:initial;background-position-x:initial;background-origin:initial;background-color:initial;background-clip:initial;background-attachment:initial;animation-play-state:paused" ><g class="ldl-scale" style="transform-origin:50% 50%;transform:rotate(0deg) scale(1, 1);animation-play-state:paused" ><path fill="#d65a62" d="M7.6 66.7c.2-1.5.5-2.9.8-4.4-.4-1.5 0-3.1.3-4.7.7-3.1 1.6-6.2 2.6-9.2.6-1.9 1.5-4 3.5-4.5-.5-1.1.3-2.6 1.5-2.8.4-.1.7 0 1.1-.2.8-.4.5-1.8 1.2-2.5.8-.8 2.5-.4 2.8-1.4.1-.3.1-.6.2-.9.3-.5 1-.4 1.5-.4 2.6 0 5.1-2.8 7.5-1.7.7-.4 1.5-.5 2.2-.6L49.9 31c.3-.9 1.8-.9 2.2 0 .5-.7 1.5-.7 2.3-.6 2.2.2 4.4.4 6.6.7.7.1 1.6.1 2.2-.3 2.6 1.2 5.2 2.5 7.8 3.7.4.2.8.4 1.2.5.4.2.8.3 1.2.4.9.3 1.9.7 2.8 1.1 2 .9 3.8 2.1 5.5 3.4 2.2 1.7 4.3 3.6 6.1 5.8 1.1 1.3 2.2 2.8 2.7 4.5.5 1.7.5 3.6-.4 5.1 1.9 4.2 2.6 8.9 2.1 13.5.3 1-.1 2.2-1 2.9-.6-.2-1.2-.3-1.7-.2-.6.1-1.1.6-1.1 1.2-2.3-1.1-4.9-1.1-7.4-1l-28.5.3c-3.8 0-7.6.1-11.3.9-1.2.2-2.4.6-3.5.2-.5-.1-1-.4-1.5-.6-1-.3-2-.3-3-.3-5.2.1-10.4.3-15.6 1-5.4.8-10.9.4-10-6.5z" style="fill:rgb(214, 90, 98);animation-play-state:paused" ></path>
<path fill="#829985" d="M9.1 48.3c.2-2.8 2.6-5.4 5.3-5.2-1.7-1.8-2.2-4.6-1.3-6.9.9-2.3 3.2-4 5.7-4.1 1.1-.1 2.2.1 3 .8.7.5 1.1 1.4 1.8 2 .5-.9.5-2 1.2-2.9 1.6-2.3 5.6-2.5 6.7 0-1.5-3.5 1.8-8 5.6-7.6 1.4.1 2.3.9 3.2 1.9 1.6 1.9 1.1 1.5 3.2.7 1.6-.6 3.4-.1 4.6 1 1.2 1.1 1.1 3.8 2.4 4.4.6.2 1.2 0 1.7-.3 2.4-1.5 1.3-4.6 3.4-6.2 1.7-1.4 4.4-.6 5.8 1.1 1.3 1.6.4 3.9 2.8 3.7 1.1-.1 1.7-.9 2.8 0 .5.5.4 1.5 1 1.9.9.6 2.1-.3 3.1-.5 1.7-.2 3.6.5 4.2 2.1-.1-.1 3.9-2.9 4.2-3.1.7.4 1.5.8 2.2 1.1.1.1.2.1.3.2.1.1.1.3.1.5 0 1.3.3 1.7 1 2.8.9 1.7.9 4-.4 5.3.8-1.5 3.1-.3 4 1.2.9 1.5 3.1 2.1 3.7 3.5.2.3.1.7 0 1.1-.7 2-1.4 2.1-.6 4.3.8 2 1.8 4.4.8 6.3-1 1.9-3.4 2.4-5.5 3-3.6 1-6.9 3-9.5 5.7-1.2 1.2-2.4 2.7-4 3-1.9.4-3.7-.8-5.3-1.8-7.1-4.3-16.3-6.4-23.8-2.9-.8.4-1.5.8-2.4.8-1.5 0-2.5-1.3-3.8-2-3.4-1.8-7.3.9-11.1 1.6-4.1.7-8.4-1.5-10.6-4.9-2.1-3-5.7-7.9-5.5-11.6z" style="fill:rgb(130, 153, 133);animation-play-state:paused" ></path>
<path fill="#f4e6c8" d="M50 34.7c-22.7 0-41.5 5.5-41.5 40.8h83c0-35.2-18.7-40.8-41.5-40.8z" style="fill:rgb(244, 230, 200);animation-play-state:paused" ></path>
<path fill="#f0af6b" d="M29.2 47c.8-.2 1.6.2 2.3.7.2.2.4.4.5.7 0 .3-.2.6-.3 1-.2.8.4 1.6 1 2.1s1.4 1.1 1.4 2c0 .9-.9 1.6-1.8 1.8-.9.2-1.8.1-2.7.4-.8.2-1.5.8-2 1.5-.1.2-.2.4-.4.6-.4.3-1 0-1.5-.2-.7-.4-1.4-.8-1.8-1.4-.4-.6-.6-1.6 0-2.2.5-.6 1.5-.7 1.9-1.4-2.1-.3-.8-2.3.1-2.9.6-.4 1.1-.4 1.7-1 .5-.6.7-1.4 1.6-1.7z" style="fill:rgb(240, 175, 107);animation-play-state:paused" ></path>
<path fill="#f0af6b" d="M68.9 47.3c.7.3 1.4 1 1.2 1.7-.1.5-.7.9-1.1 1.2-.4.4-.8.9-.6 1.5.1.1.2.3.2.4 0 .2-.2.3-.3.4-.9.5-2 0-3-.4-.7-.2-1.4-.3-2.2-.3-.3 0-.7 0-1-.2-.5-.3-.5-.9-.5-1.5 0-.7.1-1.3.3-2-.8-.2-1-1.4-.5-2.1.7-1 3-2.1 4-1.4.4.3.5 1.2.9 1.6.7.7 1.7.7 2.6 1.1z" style="fill:rgb(240, 175, 107);animation-play-state:paused" ></path>
<path fill="#f0af6b" d="M56.3 69.3c.2-.8.3-1.7.7-2.4s1.1-1.4 1.9-1.6c.8-.2 1.8.2 2.1 1 .3.9-.2 1.8-.8 2.5-.7.9-1.6 1.7-2.7 1.6-.3 0-.5-.1-.8-.1-.2 0-.3.1-.5.1-.3 0-.5-.3-.5-.6s.2-.5.3-.8" style="fill:rgb(240, 175, 107);animation-play-state:paused" ></path>
<path fill="#f0af6b" d="M40.9 58.8c.6-.5.6-1 .6-1.8 0-.4-.2-.8-.3-1.1-.4-.9-.4-2.3.5-2.7.5-.2 1.1-.1 1.4.4.3.4.3 1.1-.1 1.5.4-.1.6.4.6.7s-.2.7-.3 1.1c-.1.9.9 1.6 1.7 2-.7.8-1.6 1.6-2.6 1.2-.2-.1-.4-.2-.6-.2-.3 0-.6.3-.7.6-.4.6-.7 1.5-.1 2 .2.2.6.4.4.7-.9.3-2 .4-2.6-.3-.7-.8-.2-1.9.2-2.8.1-.2.2-.4.3-.5.3-.2.6-.2.9-.2.3-.1.7-.3.7-.6" style="fill:rgb(240, 175, 107);animation-play-state:paused" ></path>
<path fill="#f0af6b" d="M80.9 61.3c.9.6 1.7 1.3 2.6 1.9-.8.6-1.7 1.3-1.7 2.3 0 .4.1.7.1 1.1 0 .5-.2.9-.6 1.3-.8.8-2.1 1-3.2.5S76.4 67 75.8 66c-.6-1.1-.8-2.6.1-3.4-.7-.4-.8-1.4-.4-2 .4-.7 1.1-1.1 1.8-1.4 3.9-2.2 1.3.4 3.6 2.1z" style="fill:rgb(240, 175, 107);animation-play-state:paused" ></path>
<metadata xmlns:d="https://loading.io/stock/" style="animation-play-state:paused" ><d:name style="animation-play-state:paused" >mexican cake</d:name>
<d:tags style="animation-play-state:paused" >corn tortilla,taco,burrito,spring rolls,biscuit,pizza,mexican cake,food</d:tags>
<d:license style="animation-play-state:paused" >by</d:license>
<d:slug style="animation-play-state:paused" >iw82vm</d:slug></metadata></g><!-- generated by https://loading.io/ --></svg>